PathFileType	4	(X/Y/Z)	C:\Users\°ÂÌØÂü\Desktop\20210112\bx_y_10_901-Unnamed.trc
DataRate	CameraRate	NumFrames	NumMarkers	Units	OrigDataRate	OrigDataStartFrame	OrigNumFrames
50.00	50.00	       8	0	mm	50.00	1	       530
Frame#	Time	
		

1	0.000	-668.26685	116.76646	1852.66016				-603.47992	-2.54623	1049.02869	-594.68176	222.09241	1067.45203	-594.43872	-1.34346	802.62286	-649.87885	282.05914	875.82098	-698.55615	274.95825	747.27264	-730.44568	251.78973	643.20874	-735.16058	246.85573	576.66827	-776.63763	256.05984	502.63202	-517.72046	-72.17966	143.01840	-717.29413	80.26145	215.45439	-602.69525	20.15709	165.68552	-674.60077	57.61504	155.76639	-712.33081	151.89778	216.56407	-771.85980	222.55980	204.89003	-594.85260	222.26115	173.44876	-882.67010	296.06631	144.56978	-561.10168	261.41052	165.68381	-666.49811	298.36823	160.83043	-628.87549	306.11020	161.93066	-528.35303	304.22958	146.59898	-708.55084	-67.52109	1546.61328	-801.74524	97.82181	1059.20410	-766.62256	-3.30264	207.10484	-794.75922	56.91816	174.69261	-797.08887	172.27957	183.57693	-767.23627	-32.66470	487.51334	-560.79645	-42.00908	163.85307	-664.03217	-65.30392	164.69879	-876.12769	-78.51554	141.48257	-703.72101	-47.90626	715.91028	-707.95831	-23.51842	614.37860	-720.68341	-22.25832	566.57135	-675.36823	171.55835	157.14854	-623.61224	-77.18031	159.93985	-659.45142	-64.21619	867.33429	-594.15143	215.29057	814.83160	-682.12567	204.87831	532.88086	-719.65527	293.19440	1530.71204	-697.82623	84.04911	574.73987	-698.51447	142.97827	574.66217	-673.08661	22.34749	519.21259	-620.59039	109.33629	1436.70764	
2	0.020	-668.31775	116.97760	1852.76990				-603.51318	-2.49760	1048.99817	-594.95947	222.07576	1067.35059	-594.60565	-1.20867	802.56116	-649.89038	282.35724	876.02704	-698.65759	275.47980	747.70221	-730.44568	251.78973	643.20874	-735.16058	246.85573	576.66827	-776.60980	255.63905	502.62769	-517.62946	-72.35661	143.08533	-717.55188	80.42316	215.58313	-602.75391	20.15026	165.82756	-674.50903	57.95749	156.05014	-712.29114	151.85794	216.74770	-771.79547	222.53940	204.70540	-594.78168	222.12920	173.43401	-882.42584	296.01208	144.62569	-561.11621	261.46890	165.58731	-666.50714	298.40347	160.72661	-628.99414	306.20679	161.95857	-528.26031	304.10669	146.68335	-708.58710	-67.60527	1546.68604	-801.83667	97.87919	1059.20251	-766.47601	-3.52181	206.98563	-794.71912	56.84633	174.68782	-797.16858	172.30254	183.40298	-767.35217	-32.87350	487.61575	-560.87067	-41.83429	163.76909	-664.03284	-65.44932	164.63010	-876.05151	-78.64049	141.43311	-703.72369	-47.62842	715.76971	-707.95831	-23.51842	614.37860	-720.70422	-22.09063	566.62378	-675.50745	171.59779	156.98056	-623.48865	-76.99481	160.02353	-659.41504	-64.39108	867.54053	-594.08826	215.17049	814.93286	-682.31964	204.78819	532.76215	-719.85492	293.09546	1530.85986	-697.81348	84.14881	574.69452	-698.51367	142.86928	574.60175	-673.08661	22.34749	519.21259	-620.72552	109.48141	1436.90234	
3	0.040	-668.75348	116.46018	1852.77576				-603.63422	-2.32843	1049.22437	-594.76660	222.09918	1067.47302	-594.43909	-1.37758	802.73962	-649.89038	282.35724	876.02704	-698.72656	275.26569	747.48053	-730.33966	251.76050	643.09961	-735.16058	246.85573	576.66827	-776.72351	256.05179	502.79333	-517.93634	-72.33080	142.87793	-717.19427	80.33288	215.54869	-602.81183	20.20313	165.78043	-674.53638	57.55341	155.88667	-712.36090	151.82205	216.71826	-771.86902	222.61696	204.76483	-594.90698	222.12082	173.67772	-882.57971	296.20798	144.68831	-561.13202	261.60965	165.90157	-666.47168	298.43286	160.50179	-628.99396	306.07990	161.80092	-528.20990	304.37756	146.57051	-708.65314	-67.49165	1546.74475	-801.90527	97.90979	1059.13672	-766.52911	-3.40744	206.95227	-794.79840	56.83110	174.77711	-797.08264	171.86711	183.87285	-767.33301	-32.72979	487.72751	-561.08496	-42.07568	164.09637	-663.81476	-65.40315	164.68391	-876.03320	-78.59757	141.50241	-703.68994	-47.54462	716.02039	-707.95831	-23.51842	614.37860	-720.75073	-22.01662	566.63635	-675.36823	171.55835	157.14854	-623.43201	-76.86106	160.03096	-659.55945	-64.23624	867.42377	-594.15143	215.29057	814.83160	-682.24023	204.86418	532.89209	-719.95612	293.21936	1530.96106	-697.93988	84.05186	574.96130	-698.38245	143.13203	574.86188	-673.08661	22.34749	519.21259	-620.87341	109.53676	1436.80322	
4	0.060	-668.82782	116.38934	1852.78943				-603.47607	-2.40900	1048.98413	-594.79333	222.15158	1067.66162	-594.37268	-1.10137	802.89331	-649.89038	282.35724	876.02704	-698.90759	275.25681	747.71021	-730.41962	251.83484	643.11578	-735.16058	246.85573	576.66827	-776.48798	256.07483	502.77383	-517.70428	-72.13541	142.87581	-717.33887	80.22207	215.41603	-602.81183	20.20313	165.78043	-674.60840	57.70679	155.79926	-712.33081	151.89778	216.56407	-771.84570	222.68655	204.79924	-594.86273	222.01979	173.61179	-882.63641	296.19785	144.62160	-561.10638	261.52872	165.77498	-666.44977	298.36285	160.76727	-628.98590	305.98410	161.79349	-528.28998	304.23193	146.33792	-708.74182	-67.43994	1546.71167	-801.78217	97.72568	1058.97656	-766.59814	-3.47407	207.16573	-794.75702	56.82468	174.83463	-797.00989	172.14738	183.57986	-767.43274	-32.64311	487.54376	-560.80341	-41.99529	164.00212	-664.13037	-65.34272	164.67953	-876.02838	-78.54763	141.55200	-703.89838	-47.62798	715.96552	-707.17328	-24.76622	615.38519	-720.92792	-21.86185	566.53735	-675.50745	171.59779	156.98056	-623.46094	-76.93552	160.18463	-659.60278	-64.44796	867.62445	-594.15143	215.29057	814.83160	-682.40717	204.87846	532.76318	-719.93079	293.04590	1530.96594	-697.66327	84.05175	574.87952	-698.41522	143.06636	574.79688	-673.08661	22.34749	519.21259	-620.97217	109.66814	1436.86072	
5	0.080	-669.24640	116.44952	1852.75439				-603.63422	-2.32843	1049.22437	-594.98608	222.12712	1067.65552	-594.26001	-1.24577	802.89966	-650.00470	282.25742	876.03363	-698.73969	274.97964	747.25903	-730.41962	251.83484	643.11578	-735.23328	246.91930	576.85040	-776.62665	256.17358	502.65912	-517.88922	-72.63345	143.02925	-717.48669	80.26593	215.19618	-602.82874	20.14491	165.86562	-674.35181	57.78118	156.14490	-712.33081	151.89778	216.56407	-771.84570	222.68655	204.79924	-595.04761	222.17097	173.87975	-882.50012	295.98505	144.57483	-561.07776	261.65341	165.76338	-666.44373	298.23502	160.56508	-628.87524	305.98331	161.77301	-528.19580	304.37000	146.50780	-708.78906	-67.43353	1546.78943	-801.90527	97.90979	1059.13672	-766.63531	-3.41921	207.19936	-794.71783	56.91175	174.75012	-796.95691	172.24028	183.36423	-767.36176	-32.51019	487.45996	-560.99268	-42.14186	164.04909	-663.68762	-65.37733	164.67171	-876.03320	-78.59757	141.50241	-703.73785	-47.53054	716.20526	-707.06372	-24.88710	615.56396	-721.03455	-21.93401	566.59515	-675.62177	171.63321	157.00911	-623.49127	-76.94993	160.40164	-659.55945	-64.23624	867.42377	-594.15143	215.29057	814.83160	-682.14917	204.87364	532.85657	-719.95612	293.21936	1530.96106	-697.66327	84.05175	574.87952	-698.32355	142.96796	574.82043	-673.07513	22.44173	519.34229	-621.13361	109.88293	1436.95471	
6	0.100	-669.61218	116.49567	1852.45325				-603.55029	-2.26604	1049.24463	-595.00421	222.17570	1067.73328	-594.59851	-1.24210	802.85736	-649.89038	282.35724	876.02704	-698.73486	275.11612	747.48804	-730.41962	251.83484	643.11578	-735.27777	246.95291	576.70959	-776.68201	255.92493	502.49573	-517.71179	-72.01218	143.31392	-717.29413	80.26145	215.45439	-602.81183	20.20313	165.78043	-674.53638	57.55341	155.88667	-712.23730	151.86736	216.65878	-771.81744	222.66403	204.67107	-595.09448	222.27962	173.72081	-882.53644	296.19745	144.72226	-561.09528	261.51697	165.86124	-666.54590	298.55954	160.65448	-629.05780	306.15366	161.82954	-528.27094	304.40305	146.67267	-708.89313	-67.55029	1546.76990	-802.00366	97.96951	1059.18286	-766.50598	-3.34834	207.04810	-794.75702	56.82468	174.83463	-796.88348	172.38297	183.28389	-767.21704	-32.57606	487.57535	-560.88812	-41.84316	163.60835	-664.02869	-65.35934	164.65042	-876.03320	-78.59757	141.50241	-703.77362	-47.50366	716.19824	-707.06372	-24.88710	615.56396	-721.07391	-21.94642	566.51898	-675.40240	171.61079	157.29567	-623.78235	-77.17486	160.04468	-659.53680	-63.94735	867.38483	-594.15143	215.29057	814.83160	-682.41064	204.77873	532.79773	-720.09839	293.25653	1531.10266	-697.66327	84.05175	574.87952	-698.25769	142.95065	574.86731	-673.08661	22.34749	519.21259	-621.16888	109.96427	1436.85925	
7	0.120	-669.72821	116.42834	1852.85059				-603.42230	-2.22025	1049.31787	-594.88306	222.25552	1067.80859	-594.60565	-1.20867	802.56116	-649.94318	282.47562	876.01178	-699.06641	275.09875	747.51135	-730.35834	251.63535	643.03607	-735.42682	246.88980	576.54974	-776.74347	255.87189	502.79721	-517.76892	-72.03300	143.17191	-717.29413	80.26145	215.45439	-602.78125	20.16013	165.78957	-674.49884	57.61544	155.78027	-712.32117	151.78221	216.90186	-771.94312	222.80113	204.62946	-594.86719	222.29457	173.59625	-882.55304	296.06750	144.54214	-561.01105	261.47833	165.93491	-666.57220	298.41846	160.82137	-628.93854	306.06384	161.71019	-528.26862	304.27621	146.51570	-708.91351	-67.52995	1546.85864	-801.88885	97.92935	1059.21753	-766.47699	-3.35622	207.05469	-794.77203	56.96823	174.78242	-797.09058	172.28741	183.42470	-767.22943	-32.90588	487.78149	-560.99902	-41.97132	163.94131	-663.74377	-65.51475	164.73872	-876.02838	-78.54763	141.55200	-703.78845	-47.55655	716.00909	-707.82660	-23.56056	614.60400	-720.97784	-22.11162	566.61359	-675.19476	171.60396	157.16646	-623.59338	-77.15024	160.02220	-659.56812	-64.16499	867.52606	-594.22791	215.42722	814.95496	-682.27258	205.03317	532.96875	-720.10327	293.19888	1531.14954	-697.64264	84.14641	574.84387	-698.38245	143.13203	574.86188	-673.08661	22.34749	519.21259	-621.07703	110.00088	1437.11462	
8	0.140	-669.73529	116.66540	1852.86035				-603.70258	-2.20022	1049.26501	-595.00421	222.17570	1067.73328	-594.49493	-1.10921	802.74432	-650.00470	282.25742	876.03363	-698.86011	275.44809	747.85083	-730.44568	251.78973	643.20874	-735.27777	246.95291	576.70959	-776.70966	255.94740	502.74225	-517.83594	-72.02063	142.91495	-717.19427	80.33288	215.54869	-602.81183	20.20313	165.78043	-674.38367	57.71767	156.25175	-712.33081	151.89778	216.56407	-771.65222	222.62932	204.57486	-594.93372	222.06277	173.67969	-882.48035	296.19290	144.72406	-561.00598	261.44180	165.66579	-666.49921	298.42218	160.87326	-628.89923	305.90564	161.85175	-528.30536	304.21851	146.62169	-709.03546	-67.42893	1546.88794	-801.88885	97.92935	1059.21753	-766.46887	-3.40320	207.01447	-794.75922	56.91816	174.69261	-797.09058	172.28741	183.42470	-767.33826	-32.81350	487.69873	-560.95483	-42.00068	163.85707	-663.91638	-65.53716	164.78003	-876.03320	-78.59757	141.50241	-703.65833	-47.42704	716.22870	-707.06390	-24.75169	615.64264	-720.96484	-21.89984	566.43549	-675.27118	171.57359	157.28934	-623.54761	-77.14419	160.26183	-659.53680	-63.94735	867.38483	-594.50677	215.53523	814.88080	-682.41388	205.03111	533.10529	-720.10822	293.14124	1531.19653	-697.81348	84.14881	574.69452	-698.41522	143.06636	574.79688	-673.08661	22.34749	519.21259	-621.09052	109.83270	1436.90540	
